<?xml version="1.0" standalone="no"?>
<!DOCTYPE svg PUBLIC "-//W3C//DTD SVG 20010904//EN"
 "http://www.w3.org/TR/2001/REC-SVG-20010904/DTD/svg10.dtd">
<svg version="1.0" xmlns="http://www.w3.org/2000/svg"
 width="185.000000pt" height="309.000000pt" viewBox="0 0 185.000000 309.000000"
 preserveAspectRatio="xMidYMid meet">

<g transform="translate(0.000000,309.000000) scale(0.100000,-0.100000)"
fill="#000000" stroke="none">
<path d="M1270 2978 c-19 -31 -63 -163 -76 -227 l-6 -29 -157 1 c-148 1 -160
0 -231 -26 -125 -46 -113 -50 -138 42 -26 98 -48 151 -61 151 -11 0 -48 -113
-87 -269 -21 -83 -34 -114 -66 -155 -51 -67 -113 -194 -134 -276 -12 -46 -15
-87 -11 -139 10 -138 108 -286 227 -347 58 -29 84 -31 107 -8 16 15 90 19 111
5 10 -6 3 -10 -23 -15 -20 -4 -34 -10 -31 -13 3 -3 -6 -25 -19 -48 -14 -23
-22 -45 -18 -48 3 -4 3 -7 -1 -7 -4 0 -18 12 -31 28 -18 20 -26 24 -35 15 -9
-8 -7 -13 9 -18 12 -3 28 -19 36 -35 8 -15 28 -39 44 -53 28 -24 29 -26 12
-41 -20 -18 -92 -22 -122 -6 -21 12 -26 57 -8 93 10 21 10 21 -5 3 -56 -70 -9
-166 75 -154 24 3 24 1 30 -102 6 -104 18 -149 57 -227 27 -52 64 -67 143 -60
l60 5 21 -43 c14 -28 18 -49 13 -61 -5 -11 -9 -21 -9 -24 -3 -13 -52 -86 -65
-96 -14 -11 -14 -15 -1 -39 13 -24 18 -26 52 -21 l38 6 0 -150 0 -150 50 0 49
0 3 157 3 157 45 -2 c63 -4 86 21 83 89 -2 55 -22 105 -23 57 0 -50 -17 -78
-47 -78 -36 0 -84 30 -102 62 -12 23 -11 28 10 53 25 28 78 55 109 55 19 0 30
19 30 52 0 11 9 31 20 45 13 17 20 41 20 69 0 47 14 59 26 22 3 -13 15 -35 25
-50 11 -14 19 -37 19 -50 0 -38 27 -68 61 -68 123 0 302 235 259 341 -14 32
-13 31 -85 35 -27 2 -71 6 -96 9 -33 5 -55 2 -76 -9 -34 -17 -68 -18 -100 -3
-30 14 -29 30 4 48 29 16 62 79 63 121 0 41 -29 105 -55 122 -14 9 -26 16 -27
16 -2 0 -2 -18 0 -40 3 -25 0 -40 -7 -40 -6 0 -11 8 -11 18 0 21 -39 87 -47
79 -3 -3 5 -26 17 -51 25 -53 23 -80 -7 -84 -15 -2 -23 4 -28 20 -9 28 -45 81
-52 75 -2 -3 5 -22 17 -44 38 -73 1 -98 -56 -37 -40 42 -51 77 -36 116 9 24 8
28 -7 28 -10 0 -28 -11 -41 -25 -17 -18 -21 -31 -17 -55 5 -25 3 -30 -12 -30
-11 0 -33 -16 -50 -35 -42 -48 -44 -114 -5 -150 l27 -25 -29 0 c-31 1 -113 68
-128 105 -8 20 -8 20 -16 0 -7 -16 -9 -17 -9 -3 -1 9 4 20 9 23 6 3 7 17 4 31
-5 18 -2 24 10 24 9 0 16 5 16 10 0 6 5 10 10 10 6 0 10 -7 10 -15 0 -18 5
-18 31 -4 11 5 17 14 14 20 -4 5 0 9 8 9 8 0 20 7 27 15 7 9 20 13 28 10 12
-4 13 -3 2 10 -11 14 -14 13 -25 -2 -8 -10 -17 -15 -21 -11 -4 4 -1 14 6 23
17 20 1 19 -22 -2 -11 -10 -18 -12 -18 -4 0 6 7 14 16 18 8 3 13 11 10 18 -3
10 2 10 25 2 16 -6 29 -15 29 -19 0 -4 5 -8 10 -8 21 0 9 20 -15 26 -14 3 -22
10 -19 16 3 5 12 7 20 4 8 -3 29 3 46 13 25 14 56 19 125 20 83 1 94 -1 119
-23 18 -15 34 -21 44 -16 152 69 223 124 296 226 63 89 86 164 88 289 1 149
-37 246 -140 355 -48 51 -55 65 -89 175 -58 191 -79 248 -92 253 -7 2 -22 -11
-33 -30z m-312 -368 c24 0 22 -5 -38 -65 -35 -35 -61 -67 -57 -71 4 -4 42 20
84 53 93 71 115 85 89 55 -19 -22 -19 -22 7 -22 26 0 66 -28 129 -92 20 -21
44 -38 52 -38 25 0 19 -17 -9 -24 -13 -3 -31 -19 -39 -34 -15 -29 -59 -73 -91
-90 -11 -6 -15 -12 -10 -12 6 0 34 15 63 34 l52 35 -2 -39 c-1 -35 -4 -38 -37
-44 -20 -3 -57 -6 -82 -6 -62 0 -206 -28 -242 -46 -45 -24 -26 -26 37 -4 81
27 209 43 286 34 l65 -7 -50 -13 c-27 -8 -67 -14 -89 -14 -33 0 -37 -2 -26
-15 11 -13 0 -15 -88 -15 -108 0 -162 -7 -162 -22 0 -5 19 -6 48 -2 60 10 201
9 238 -1 l29 -8 -30 -6 c-23 -5 -31 -12 -33 -34 -6 -47 -133 -157 -164 -140
-4 2 -4 19 -1 37 3 19 0 51 -7 72 l-13 37 -22 -76 c-34 -119 -92 -177 -177
-177 -39 0 -112 34 -135 63 -16 19 -81 46 -121 49 -8 1 -11 9 -8 21 4 15 0 18
-14 14 -32 -8 -31 21 1 58 22 25 40 35 59 35 16 0 32 5 35 10 8 13 -17 12 -92
-4 -60 -12 -88 -5 -40 10 21 7 21 7 2 14 -21 8 22 17 115 23 25 2 3 4 -48 5
l-94 2 7 33 c12 63 46 143 81 191 l36 49 64 -6 c35 -2 64 -1 64 3 0 4 -19 15
-41 26 l-42 18 32 27 c18 14 50 33 72 42 l40 16 -7 -35 c-12 -63 15 -114 60
-114 13 0 29 7 37 16 11 13 10 15 -5 12 -24 -4 -41 23 -33 53 11 44 65 119 86
119 19 0 19 -2 5 -35 -23 -57 -17 -57 38 1 46 49 56 55 81 50 16 -3 41 -6 55
-6z m127 -500 c3 -5 2 -10 -4 -10 -5 0 -13 5 -16 10 -3 6 -2 10 4 10 5 0 13
-4 16 -10z m-295 -441 c0 -5 -13 -15 -29 -20 -44 -16 -65 -53 -57 -105 4 -35
3 -42 -9 -38 -17 7 -32 51 -27 81 7 45 122 122 122 82z m-25 -59 c-3 -5 -11
-10 -16 -10 -6 0 -7 5 -4 10 3 6 11 10 16 10 6 0 7 -4 4 -10z m65 0 c0 -5 -4
-10 -10 -10 -5 0 -10 5 -10 10 0 6 5 10 10 10 6 0 10 -4 10 -10z m165 -34 c6
-6 26 -25 46 -41 32 -28 34 -34 26 -64 l-8 -33 -64 4 c-44 3 -70 10 -84 22
-46 41 -8 143 47 130 15 -4 32 -11 37 -18z m-259 -33 c-10 -10 -19 5 -10 18 6
11 8 11 12 0 2 -7 1 -15 -2 -18z m34 -121 c0 -2 -12 -19 -27 -38 -18 -25 -28
-31 -34 -23 -12 20 18 68 41 66 11 -1 20 -3 20 -5z m230 -57 c58 -30 28 -109
-54 -146 -66 -30 -163 -22 -188 15 -54 81 138 185 242 131z m485 -30 c-29 -23
-45 -31 -45 -20 0 6 62 45 70 45 3 0 -8 -11 -25 -25z m-236 -27 c0 -18 -4 -42
-9 -53 -6 -14 -9 -5 -8 33 1 28 5 52 10 52 4 0 8 -15 7 -32z m-212 -554 c-3
-3 -12 -4 -19 -1 -8 3 -5 6 6 6 11 1 17 -2 13 -5z m-2 -64 c3 -6 3 -20 0 -31
-6 -18 -9 -19 -21 -7 -8 8 -12 22 -8 31 7 19 20 22 29 7z m1 -85 c4 -8 3 -23
0 -32 -6 -15 -8 -15 -22 -2 -8 9 -12 23 -8 32 8 21 23 22 30 2z m-5 -118 c-18
-18 -33 11 -19 37 11 20 11 20 21 -2 7 -16 7 -26 -2 -35z"/>
<path d="M990 2519 c-17 -41 -18 -166 -1 -206 28 -68 61 -26 61 78 0 54 -2 59
-22 59 -20 0 -20 1 -5 18 20 22 22 53 5 70 -18 18 -24 15 -38 -19z"/>
<path d="M455 2389 c-13 -20 -17 -153 -6 -169 10 -13 12 -13 21 0 14 21 13
107 -1 112 -8 3 -8 10 2 26 10 16 11 24 2 33 -8 8 -13 7 -18 -2z"/>
<path d="M567 2232 c-22 -24 -21 -30 6 -34 18 -2 22 -9 20 -38 -2 -40 -28 -63
-60 -55 -13 3 -23 1 -23 -5 0 -10 20 -14 53 -12 12 1 17 -6 17 -24 0 -41 21
-102 42 -121 16 -15 20 -15 33 -2 15 15 38 117 33 142 -2 8 12 28 30 45 19 18
32 39 31 54 0 21 -2 20 -16 -9 -9 -17 -27 -36 -41 -43 -21 -9 -30 -8 -51 8
-31 23 -40 61 -17 74 21 12 21 38 0 38 -8 0 -12 -4 -9 -10 3 -5 -1 -10 -10
-10 -9 0 -13 5 -10 10 11 17 -11 11 -28 -8z"/>
<path d="M886 1311 c-20 -22 -14 -41 14 -41 25 0 50 10 50 21 0 4 -6 6 -12 4
-7 -3 -20 0 -28 5 -13 9 -13 11 0 20 8 5 10 10 4 10 -6 0 -19 -9 -28 -19z"/>
<path d="M830 1281 c0 -5 5 -13 10 -16 6 -3 10 -2 10 4 0 5 -4 13 -10 16 -5 3
-10 2 -10 -4z"/>
<path d="M770 1569 c0 -5 5 -7 10 -4 6 3 10 8 10 11 0 2 -4 4 -10 4 -5 0 -10
-5 -10 -11z"/>
<path d="M785 1539 c-4 -6 -5 -12 -2 -15 2 -3 7 2 10 11 7 17 1 20 -8 4z"/>
<path d="M790 1500 c0 -5 5 -10 10 -10 6 0 10 5 10 10 0 6 -4 10 -10 10 -5 0
-10 -4 -10 -10z"/>
<path d="M1093 403 c9 -2 25 -2 35 0 9 3 1 5 -18 5 -19 0 -27 -2 -17 -5z"/>
<path d="M960 262 c0 -44 -3 -120 -6 -170 l-7 -92 67 0 67 0 -1 138 c-1 75 -4
152 -7 170 -5 32 -6 32 -59 32 l-54 0 0 -78z"/>
</g>
</svg>
